<svg width="24" height="21" viewBox="0 0 24 21" fill="none" xmlns="http://www.w3.org/2000/svg">
<path d="M3.48877 4.00387C2.76311 5.24787 2.52428 6.97403 2.97014 8.75746C3.13059 9.39925 3.59703 10.2243 4.33627 11.174C5.06116 12.1052 5.9864 13.0787 6.96636 14.0127C8.90945 15.8648 11.0006 17.4985 12 18.254C12.5679 17.8247 13.4884 17.1118 14.5338 16.2364C14.7154 16.0844 14.9444 16 15.1812 16H15.2755C16.1864 16 16.6096 17.1044 15.9123 17.6905C14.7762 18.6456 13.7775 19.418 13.181 19.8683C12.4803 20.3974 11.5197 20.3974 10.819 19.8683C9.80433 19.1022 7.62583 17.4042 5.58648 15.4605C4.56733 14.4891 3.56585 13.4402 2.75806 12.4025C1.96461 11.3832 1.2924 10.2927 1.02986 9.24254C0.475714 7.02597 0.736884 4.75213 1.76121 2.99613C2.80291 1.21035 4.62017 0 6.99998 0C9.59038 0 11.0969 1.95772 11.8944 3.55278C11.9307 3.62535 11.9659 3.69784 12 3.77011C12.0341 3.69784 12.0693 3.62535 12.1056 3.55279C12.9031 1.95772 14.4096 0 17 0C19.3798 0 21.1971 1.21035 22.2388 2.99613C23.1118 4.49271 23.4305 6.36544 23.1625 8.25828C23.1008 8.69455 22.7141 9 22.2735 9C21.6284 9 21.169 8.35863 21.2387 7.71731C21.3774 6.44008 21.1371 5.07683 20.5112 4.00387C19.8029 2.78965 18.6202 2 17 2C15.5904 2 14.5969 3.04228 13.8944 4.44721C13.5569 5.12228 13.3275 5.80745 13.1823 6.33015C13.1102 6.58959 13.0602 6.80435 13.0286 6.95172C12.9167 7.47392 12.3143 7.5 12 7.5C11.6857 7.5 11.0823 7.46905 10.9714 6.95172C10.9398 6.80436 10.8898 6.58959 10.8177 6.33015C10.6725 5.80745 10.4431 5.12229 10.1056 4.44722C9.40308 3.04228 8.40956 2 6.99998 2C5.37979 2 4.19706 2.78965 3.48877 4.00387Z" fill="#5DCC15"/>
<path d="M15.9191 7.60608C15.7658 7.24819 15.4186 7.01187 15.0294 7.00043C14.6402 6.98899 14.2797 7.20452 14.1056 7.55279L12.382 11H9C8.44771 11 8 11.4477 8 12C8 12.5523 8.44771 13 9 13H13C13.3788 13 13.725 12.786 13.8944 12.4472L14.9302 10.3757L17.0808 15.3939C17.2215 15.7221 17.5265 15.9504 17.881 15.9929C18.2355 16.0354 18.5858 15.8856 18.8 15.6L21.5 12H23C23.5523 12 24 11.5523 24 11C24 10.4477 23.5523 10 23 10H21C20.6852 10 20.3888 10.1482 20.2 10.4L18.2378 13.0163L15.9191 7.60608Z" fill="#5DCC15"/>
</svg>
