<svg width="22" height="22" viewBox="0 0 22 22" fill="none" xmlns="http://www.w3.org/2000/svg">
<path fill-rule="evenodd" clip-rule="evenodd" d="M1 0C0.447715 0 0 0.447715 0 1C0 1.55228 0.447715 2 1 2H2.21922L5.78345 16.2569C4.73276 16.7236 4 17.7762 4 19C4 20.6569 5.34315 22 7 22C8.65685 22 10 20.6569 10 19C10 18.6494 9.93985 18.3128 9.82929 18H14.1707C14.0602 18.3128 14 18.6494 14 19C14 20.6569 15.3431 22 17 22C18.6569 22 20 20.6569 20 19C20 17.3431 18.6569 16 17 16H7.78078L7.28078 14H17C19.0642 14 20.3019 12.6959 20.9887 11.2559C21.6599 9.84872 21.8935 8.16692 21.975 6.94368C22.0884 5.24014 20.6803 4 19.1211 4H4.78078L4.15951 1.51493C3.93692 0.624595 3.13696 0 2.21922 0H1ZM17 12H6.78078L5.28078 6H19.1211C19.6742 6 20.0063 6.40675 19.9794 6.81078C19.9034 7.9522 19.6906 9.33179 19.1836 10.3949C18.6922 11.4251 18.0201 12 17 12ZM17 19.9938C16.4511 19.9938 16.0062 19.5489 16.0062 19C16.0062 18.4511 16.4511 18.0062 17 18.0062C17.5489 18.0062 17.9938 18.4511 17.9938 19C17.9938 19.5489 17.5489 19.9938 17 19.9938ZM6.00617 19C6.00617 19.5489 6.45112 19.9938 7 19.9938C7.54888 19.9938 7.99383 19.5489 7.99383 19C7.99383 18.4511 7.54888 18.0062 7 18.0062C6.45112 18.0062 6.00617 18.4511 6.00617 19Z" fill="#7C7C7C"/>
</svg>
