<svg width="17" height="29" viewBox="0 0 17 29" fill="none" xmlns="http://www.w3.org/2000/svg">
<path d="M17 0.799009C17 0.589575 16.9186 0.38872 16.7737 0.240628C16.6287 0.0925357 16.4322 0.00933836 16.2273 0.00933836H12.3636C10.4181 -0.0897007 8.51328 0.602209 7.06538 1.93389C5.61748 3.26557 4.74421 5.12877 4.63636 7.11637V11.3806H0.772726C0.567787 11.3806 0.371241 11.4638 0.226326 11.6119C0.0814122 11.76 0 11.9608 0 12.1703V16.2766C0 16.486 0.0814122 16.6868 0.226326 16.8349C0.371241 16.983 0.567787 17.0662 0.772726 17.0662H4.63636V27.6478C4.63636 27.8572 4.71777 28.0581 4.86268 28.2062C5.0076 28.3543 5.20415 28.4375 5.40909 28.4375H10.0454C10.2504 28.4375 10.4469 28.3543 10.5918 28.2062C10.7368 28.0581 10.8182 27.8572 10.8182 27.6478V17.0662H14.8673C15.0391 17.0687 15.2069 17.0127 15.344 16.9068C15.4812 16.801 15.5799 16.6515 15.6245 16.4819L16.7373 12.3756C16.768 12.2589 16.7721 12.1366 16.7493 12.018C16.7265 11.8994 16.6774 11.7878 16.6058 11.6917C16.5341 11.5956 16.4418 11.5175 16.336 11.4636C16.2302 11.4097 16.1137 11.3813 15.9954 11.3806H10.8182V7.11637C10.8566 6.72545 11.0363 6.3632 11.322 6.10037C11.6078 5.83754 11.9792 5.693 12.3636 5.69497H16.2273C16.4322 5.69497 16.6287 5.61177 16.7737 5.46368C16.9186 5.31558 17 5.11473 17 4.9053V0.799009Z" fill="#F7F7F7" fill-opacity="0.8"/>
</svg>
