<svg width="38" height="32" viewBox="0 0 38 32" fill="none" xmlns="http://www.w3.org/2000/svg">
<path d="M35.3099 2.80469C35.3099 2.80469 32.2619 4.59846 30.5669 5.10688C29.6572 4.06489 28.4482 3.32635 27.1034 2.99115C25.7586 2.65596 24.343 2.74027 23.0479 3.2327C21.7528 3.72513 20.6406 4.60191 19.8621 5.74444C19.0834 6.88699 18.6759 8.24018 18.6945 9.621V11.1257C16.04 11.1943 13.4097 10.6078 11.0378 9.41852C8.66595 8.22925 6.62616 6.4741 5.10008 4.30939C5.10008 4.30939 -0.941878 17.8518 12.6525 23.8706C9.54172 25.974 5.83593 27.0288 2.0791 26.88C15.6735 34.4035 32.2889 26.88 32.2889 9.57586C32.2875 9.15672 32.2471 8.73862 32.1681 8.32695C33.7097 6.81245 35.3099 2.80469 35.3099 2.80469Z" stroke="#F7F7F7" stroke-opacity="0.8" stroke-width="4" stroke-linecap="round" stroke-linejoin="round"/>
</svg>
