<svg width="36" height="27" viewBox="0 0 36 27" fill="none" xmlns="http://www.w3.org/2000/svg">
<path d="M32.3852 6.24236C32.0386 4.93702 31.0174 3.90913 29.7205 3.56027C27.3699 2.92627 17.9443 2.92627 17.9443 2.92627C17.9443 2.92627 8.5188 2.92627 6.1682 3.56027C4.87137 3.90913 3.84998 4.93702 3.50338 6.24236C2.87354 8.60818 2.87354 13.5443 2.87354 13.5443C2.87354 13.5443 2.87354 18.4804 3.50338 20.8465C3.84998 22.1516 4.87137 23.1795 6.1682 23.5285C8.5188 24.1624 17.9443 24.1624 17.9443 24.1624C17.9443 24.1624 27.3699 24.1624 29.7205 23.5285C31.0174 23.1795 32.0386 22.1516 32.3852 20.8465C33.0151 18.4804 33.0151 13.5443 33.0151 13.5443C33.0151 13.5443 33.0151 8.60818 32.3852 6.24236Z" stroke="#F7F7F7" stroke-opacity="0.8" stroke-width="4" stroke-miterlimit="10"/>
<path d="M14.8617 18.0258L22.7396 13.5444L14.8617 9.0625V18.0258Z" stroke="#F7F7F7" stroke-opacity="0.8" stroke-width="4" stroke-miterlimit="10" stroke-linecap="round" stroke-linejoin="round"/>
</svg>
