<svg width="57" height="53" viewBox="0 0 57 53" fill="none" xmlns="http://www.w3.org/2000/svg">
<g clip-path="url(#clip0_1_69)">
<path fill-rule="evenodd" clip-rule="evenodd" d="M56.1177 9.63636C56.1177 7.50664 53.324 6.74909 51.4758 6.24792C51.306 6.20188 51.1441 6.158 50.9932 6.11541C48.685 5.46425 45.407 4.81818 41.4783 4.81818C37.2724 4.81818 33.8046 6.201 31.4231 7.54468C31.0588 7.75021 30.6759 8.03411 30.3298 8.29071C29.8725 8.62972 29.4795 8.92106 29.2788 8.92106C29.0781 8.92106 28.6851 8.62971 28.2278 8.29071C27.8817 8.03411 27.4987 7.75021 27.1345 7.54468C24.7529 6.201 21.2851 4.81818 17.0793 4.81818C13.1505 4.81818 9.87258 5.46425 7.56438 6.11541C7.41923 6.15636 7.26372 6.19864 7.10049 6.24302C5.26044 6.7433 2.43991 7.51014 2.43991 9.63636V40.9545C2.43991 41.7895 2.87776 42.5649 3.59708 43.0038C4.74145 43.7022 6.25163 43.091 7.5899 42.5493C8.05679 42.3604 8.50275 42.1799 8.90496 42.0664C10.8666 41.513 13.6884 40.9545 17.0793 40.9545C20.1567 40.9545 22.4606 41.9568 24.1877 43.0063C24.6314 43.2758 25.0797 43.6196 25.5399 43.9725C26.6775 44.8448 27.8876 45.7727 29.2788 45.7727C30.6739 45.7727 31.878 44.8481 33.0136 43.9762C33.4742 43.6225 33.9236 43.2774 34.3699 43.0063C36.097 41.9568 38.4008 40.9545 41.4783 40.9545C44.8692 40.9545 47.691 41.513 49.6526 42.0664C50.0734 42.1851 50.5301 42.3755 51.0041 42.5732C52.3219 43.1227 53.7737 43.7281 54.9605 43.0038C55.6798 42.5649 56.1177 41.7895 56.1177 40.9545V9.63636ZM8.13103 10.9794C7.64088 11.1339 7.31971 11.5896 7.31971 12.0976V35.8933C7.31971 36.6977 8.10264 37.2765 8.89459 37.0882C11.0668 36.5718 13.8532 36.1364 17.0793 36.1364C21.3811 36.1364 24.5928 37.5803 26.8389 38.9601V13.1432C26.3483 12.7584 25.628 12.2441 24.7134 11.728C22.8251 10.6626 20.1931 9.63636 17.0793 9.63636C13.2123 9.63636 10.0765 10.3662 8.13103 10.9794ZM41.4783 36.1364C37.1765 36.1364 33.9648 37.5803 31.7187 38.9601V13.1432C32.2093 12.7584 32.9295 12.2441 33.8442 11.728C35.7325 10.6626 38.3644 9.63636 41.4783 9.63636C45.3453 9.63636 48.4811 10.3662 50.4265 10.9794C50.9167 11.1339 51.2379 11.5896 51.2379 12.0976V35.8934C51.2379 36.6977 50.4549 37.2765 49.663 37.0882C47.4907 36.5717 44.7044 36.1364 41.4783 36.1364Z" fill="white"/>
<path d="M5.09293 49.1665C4.54216 47.9522 5.09263 46.527 6.32245 45.9831C7.4649 45.4818 8.64765 45.0603 9.8372 44.6834C11.8108 44.0581 14.5396 43.3636 17.0793 43.3636C19.9264 43.3636 22.3564 44.8787 24.1176 45.9767C24.208 46.0331 24.2967 46.0883 24.3835 46.1423C26.4356 47.416 27.8158 48.1818 29.2788 48.1818C30.7401 48.1818 32.1121 47.4178 34.1615 46.1433C34.2456 46.091 34.3314 46.0375 34.4188 45.9829C36.1815 44.8821 38.6132 43.3636 41.4783 43.3636C44.0317 43.3636 46.76 44.0577 48.7325 44.6838C50.5041 45.2461 51.8181 45.8022 52.1558 45.9485C53.3904 46.4877 54.0298 47.9271 53.4627 49.1708C52.9133 50.3755 51.4475 50.91 50.2312 50.3763C49.2573 49.9521 48.2518 49.5922 47.239 49.2708C45.4168 48.6923 43.2653 48.1818 41.4783 48.1818C40.1142 48.1818 38.8034 48.9493 36.6154 50.3116C34.8015 51.441 32.2976 53 29.2788 53C26.258 53 23.746 51.439 21.927 50.3087C19.7345 48.9462 18.4267 48.1818 17.0793 48.1818C15.3074 48.1818 13.1565 48.6919 11.3281 49.2712C10.3095 49.5939 9.29538 49.9527 8.3164 50.3807C7.08671 50.9241 5.64362 50.3806 5.09293 49.1665Z" fill="white"/>
</g>
<defs>
<clipPath id="clip0_1_69">
<rect width="56.1176" height="53" fill="white"/>
</clipPath>
</defs>
</svg>
