<svg width="53" height="53" viewBox="0 0 53 53" fill="none" xmlns="http://www.w3.org/2000/svg">
<path d="M5.34454 47.3214H10.6891V21.0317C10.6891 20.3345 10.9706 19.6658 11.4718 19.1728C11.9729 18.6798 12.6526 18.4028 13.3613 18.4028H45.4286V13.1448C45.4286 12.4476 45.147 11.7789 44.6459 11.2859C44.1447 10.7929 43.465 10.5159 42.7563 10.5159H34.6032C33.9298 4.61647 28.8872 0 22.7143 0C16.5413 0 11.4988 4.61647 10.8254 10.5159H2.67227C1.96354 10.5159 1.28384 10.7929 0.782689 11.2859C0.281542 11.7789 0 12.4476 0 13.1448V42.0635C0 43.458 0.563083 44.7954 1.56538 45.7814C2.56767 46.7675 3.92708 47.3214 5.34454 47.3214ZM22.7143 5.25794C25.9397 5.25794 28.6414 7.51885 29.2613 10.5159H16.1672C16.7872 7.51885 19.4889 5.25794 22.7143 5.25794Z" fill="white"/>
<path d="M50.3635 23.6607H18.7258C18.0265 23.6607 17.3559 23.9417 16.8615 24.4419C16.3671 24.9421 16.0893 25.6205 16.0893 26.3279V47.6656C16.0893 49.0804 16.6448 50.4372 17.6337 51.4376C18.6226 52.438 19.9638 53 21.3622 53H47.727C49.1255 53 50.4667 52.438 51.4556 51.4376C52.4445 50.4372 53 49.0804 53 47.6656V26.3279C53 25.6205 52.7222 24.9421 52.2278 24.4419C51.7334 23.9417 51.0628 23.6607 50.3635 23.6607ZM34.5446 42.3312C27.2759 42.3312 21.3622 36.3486 21.3622 28.9951H26.6352C26.6352 33.4067 30.1839 36.9967 34.5446 36.9967C38.9054 36.9967 42.4541 33.4067 42.4541 28.9951H47.727C47.727 36.3486 41.8134 42.3312 34.5446 42.3312Z" fill="white"/>
</svg>
