<svg width="47" height="53" viewBox="0 0 47 53" fill="none" xmlns="http://www.w3.org/2000/svg">
<path d="M40.7666 30.5116C40.061 29.8159 38.4942 29.4482 36.1092 29.4151C34.496 29.3986 32.5549 29.541 30.5111 29.8259C29.5968 29.2992 28.6528 28.7228 27.9141 28.0305C25.9233 26.1722 24.2604 23.5917 23.2269 20.7529C23.2931 20.4879 23.3528 20.2561 23.4058 20.0176C23.4058 20.0176 24.5287 13.6476 24.2306 11.4945C24.1908 11.1997 24.1643 11.1136 24.0848 10.885L23.9888 10.6332C23.684 9.93099 23.0844 9.18568 22.147 9.22543L21.5806 9.20886C20.5338 9.20886 19.6825 9.74218 19.4606 10.5438C18.7815 13.0514 19.4838 16.8011 20.7524 21.6572L20.4278 22.4489C19.5169 24.6683 18.3774 26.9042 17.3704 28.8752L17.2379 29.1302C16.1779 31.2039 15.2173 32.9628 14.3461 34.4534L13.4484 34.9304C13.3821 34.9636 11.8418 35.7817 11.4808 36.0004C8.41338 37.8322 6.38281 39.9091 6.04494 41.5587C5.93894 42.0854 6.01844 42.7579 6.56169 43.0692L7.43288 43.5065C7.8105 43.6953 8.208 43.7914 8.61544 43.7914C10.7984 43.7914 13.3358 41.0718 16.8304 34.9735C20.8651 33.6617 25.4562 32.5686 29.4809 31.9657C32.5483 33.6916 36.3212 34.8907 38.6996 34.8907C39.1236 34.8907 39.4879 34.8509 39.7828 34.7714C40.2399 34.6489 40.6241 34.3905 40.8593 34.0361C41.3198 33.3404 41.4158 32.3831 41.2899 31.4026C41.2535 31.1111 41.0216 30.7534 40.7699 30.5049L40.7666 30.5116ZM8.14175 42.1351C8.53925 41.0453 10.116 38.8922 12.448 36.9809C12.5938 36.8616 12.9548 36.5237 13.2861 36.2091C10.8481 40.0979 9.215 41.6482 8.14175 42.1318V42.1351ZM21.9516 10.3351C22.6538 10.3351 23.0546 12.104 23.0878 13.7636C23.1209 15.4231 22.7333 16.5891 22.253 17.4504C21.8555 16.1751 21.6601 14.1644 21.6601 12.8493C21.6601 12.8493 21.6303 10.3351 21.9516 10.3351ZM17.8308 32.9959C18.3211 32.1214 18.8279 31.1972 19.3479 30.2167C20.6166 27.8185 21.4149 25.9436 22.0112 24.4033C23.1971 26.5597 24.6744 28.3949 26.4102 29.8656C26.6255 30.0478 26.8574 30.2333 27.0959 30.4155C23.5648 31.1144 20.5173 31.9624 17.8308 32.9959ZM40.0908 32.7972C39.8755 32.933 39.2594 33.0092 38.8652 33.0092C37.5866 33.0092 36.0032 32.4262 33.7871 31.4722C34.6384 31.4092 35.4202 31.3761 36.1224 31.3761C37.4044 31.3761 37.7853 31.3695 39.0374 31.6908C40.2896 32.0121 40.3061 32.6614 40.0908 32.7939V32.7972Z" fill="white"/>
<path d="M44.6921 11.8554C43.5426 10.2886 41.9394 8.4535 40.1804 6.69456C38.4215 4.93562 36.5864 3.33238 35.0196 2.18294C32.3497 0.22525 31.0545 0 30.3125 0H4.64063C2.35831 0 0.5 1.85831 0.5 4.14062V48.8594C0.5 51.1417 2.35831 53 4.64063 53H42.7344C45.0167 53 46.875 51.1417 46.875 48.8594V16.5625C46.875 15.8205 46.6498 14.5253 44.6921 11.8554ZM37.8352 9.03981C39.4252 10.6298 40.6707 12.0608 41.5916 13.25H33.6217V5.28344C34.8109 6.20431 36.2485 7.44981 37.8352 9.03981ZM43.5625 48.8594C43.5625 49.3099 43.1849 49.6875 42.7344 49.6875H4.64063C4.19344 49.6875 3.8125 49.3099 3.8125 48.8594V4.14062C3.8125 3.69344 4.19344 3.3125 4.64063 3.3125H30.3125V14.9062C30.3125 15.8205 31.0545 16.5625 31.9688 16.5625H43.5625V48.8594Z" fill="white"/>
</svg>
