<svg width="77" height="53" viewBox="0 0 77 53" fill="none" xmlns="http://www.w3.org/2000/svg">
<path d="M62.625 0C60.0333 2.48091 56.9165 4.43192 53.4625 5.67479C49.8591 6.31067 39.8873 1.68606 34.9736 6.40702C34.1547 7.22596 33.1431 8.0449 32.0833 8.86384C29.771 7.85221 26.2061 6.31067 23.6048 4.81731C21.0035 3.32394 14.4519 0 14.4519 0L0 16.8606C0 16.8606 3.56481 21.6779 5.78077 24.8573C7.22596 26.9769 9.00836 30.2045 10.1645 32.3723L8.52663 34.2992C8.24723 34.8532 8.07862 35.5035 8.07862 36.1924C8.07862 37.3245 8.52181 38.3554 9.24923 39.1165C9.91402 39.6127 10.7474 39.9114 11.6579 39.9114C12.5684 39.9114 13.4017 39.6127 14.0762 39.1069C13.6233 39.632 13.3584 40.3064 13.3584 41.0434C13.3584 41.9732 13.7823 42.8018 14.4471 43.3509C15.1408 43.7604 15.9742 44.0013 16.8606 44.0013C17.747 44.0013 18.5804 43.7604 19.2933 43.3413C18.7538 44.0109 18.4406 44.8491 18.4406 45.7644C18.4406 46.6797 18.7538 47.5179 19.2789 48.1827C19.7558 48.3513 20.3098 48.4525 20.8878 48.4525C21.885 48.4525 22.8099 48.149 23.5759 47.6335C23.3688 48.0912 23.2628 48.6114 23.2628 49.1606C23.2628 50.2879 23.7252 51.3043 24.4767 52.0269C25.103 52.3111 25.84 52.4749 26.6108 52.4749C27.6995 52.4749 28.716 52.1473 29.5542 51.5837L32.0399 49.334C34.3137 51.5982 37.4497 53 40.9134 53C41.0097 53 41.1109 53 41.2072 52.9952C43.587 52.7929 45.5813 51.2802 46.4774 49.1847C47.1807 49.4545 47.9804 49.6375 48.8282 49.6375C49.9651 49.6375 51.0201 49.3099 51.9113 48.7463C54.7294 46.882 54.055 45.4368 54.055 45.4368C54.6572 45.7018 55.3557 45.8559 56.0927 45.8559C57.6391 45.8559 59.0313 45.1719 59.9755 44.0928C60.8233 43.2209 61.3388 42.0358 61.3388 40.7351C61.3388 39.8199 61.0834 38.9672 60.6403 38.2398C60.6788 38.2639 60.7125 38.2639 60.7414 38.2639C62.7695 38.2639 64.5326 37.1462 65.4527 35.4987C65.7803 34.675 65.9586 33.75 65.9586 32.7866C65.9586 31.1391 65.4286 29.612 64.5326 28.3691L64.5471 28.3932C68.4973 27.6224 68.3528 25.6473 70.2797 22.757C72.1295 20.3772 74.384 18.4117 76.9613 16.9376L62.625 0ZM62.3841 34.0102C60.2645 36.1298 58.6266 35.2145 55.0136 32.4686C51.4007 29.7228 44.2229 24.5683 44.2229 24.5683C44.5167 26.0375 45.196 27.3141 46.1546 28.3306C47.6913 30.06 52.2678 34.0102 54.4356 36.0334C55.7844 37.2859 59.2529 39.7909 57.2296 41.7179C55.2063 43.6448 53.6166 41.7179 50.2927 39.0202C46.9687 36.3225 39.5501 29.6746 39.5501 29.6746C39.5453 29.7613 39.5404 29.8577 39.5404 29.9588C39.5404 31.2017 40.0414 32.3241 40.8508 33.1431C41.6697 34.1065 46.2461 38.5384 48.1731 40.5617C50.1 42.585 51.786 43.7893 50.1482 45.379C48.5103 46.9687 45.1863 44.4637 43.3558 42.585C40.5135 39.8391 34.8773 34.7328 34.8773 34.7328C34.8725 34.8099 34.8725 34.8966 34.8725 34.9881C34.8725 36.3562 35.3446 37.6087 36.1394 38.6011C37.5268 40.422 40.2245 42.7825 41.8624 44.6131C43.5003 46.4436 44.4637 47.9852 41.8624 49.4304C39.261 50.8756 35.4072 47.3108 33.7211 45.5765V45.5669C33.7211 45.0707 33.5381 44.6179 33.2394 44.271C32.4735 43.5629 31.4377 43.1245 30.3057 43.1245C29.8047 43.1245 29.3229 43.2112 28.8749 43.3654C29.4915 42.8162 29.8577 42.0454 29.8577 41.188C29.8577 40.3305 29.4915 39.5597 28.9038 39.0202C28.2969 38.5625 27.5357 38.2879 26.712 38.2879C25.8882 38.2879 25.1222 38.5625 24.5105 39.025C25.0741 38.4806 25.4209 37.734 25.4209 36.9006C25.4209 35.8745 24.8958 34.9736 24.101 34.4486C23.3639 33.9813 22.4824 33.7115 21.5382 33.7115C20.3628 33.7115 19.2837 34.1354 18.4455 34.8339C18.9031 34.2848 19.1729 33.5814 19.1729 32.8107C19.1729 31.8713 18.7634 31.0283 18.1179 30.4454C17.2604 29.6505 16.1091 29.164 14.8469 29.164C13.9557 29.164 13.1223 29.4048 12.4046 29.8288L9.20105 24.4189C6.98509 20.9023 4.38375 17.2411 4.38375 17.2411L15.3672 3.8972C15.3672 3.8972 19.2692 6.30585 22.4968 8.13643C24.0865 9.05172 26.8324 10.256 28.9038 11.2195C25.6281 13.6763 22.8822 16.0368 23.7011 17.6747C25.1319 18.7056 26.9191 19.327 28.8508 19.327C30.6622 19.327 32.3482 18.7827 33.7549 17.8481C35.5517 16.639 37.8014 15.9067 40.2245 15.9067C41.8961 15.9067 43.4858 16.2536 44.9262 16.8847C47.595 18.6863 52.5086 23.1182 56.9887 25.9123C62.625 30.007 63.733 32.6565 62.3841 34.0054V34.0102Z" fill="white"/>
</svg>
