<svg width="49" height="61" viewBox="0 0 49 61" fill="none" xmlns="http://www.w3.org/2000/svg">
<path d="M49 22.3671C49 9.9636 37.9751 0 24.5 0C11.0249 0 0 10.0651 0 22.3671C0 30.9072 5.67985 38.4309 13.3638 42.1917L11.1362 61L24.5 52.8671L37.8638 61L35.6362 42.1917C43.4314 38.4299 49 30.9072 49 22.3671ZM24.5 42.7004C12.1393 42.7004 2.22768 33.5501 2.22768 22.3671C2.22768 11.0825 12.2506 2.03374 24.5 2.03374C36.7494 2.03374 46.7723 11.184 46.7723 22.3671C46.7825 25.0399 46.2133 27.6881 45.0976 30.1592C43.9819 32.6304 42.3417 34.8756 40.2715 36.7655C38.2013 38.6555 35.742 40.1529 33.0352 41.1715C30.3285 42.19 27.4277 42.7097 24.5 42.7004ZM34.5229 14.0301L37.8638 17.0802L22.8295 30.8056L14.4771 23.1804L17.8181 20.1303L22.8295 24.7054L34.5229 14.0301Z" fill="white"/>
</svg>
