<svg width="54" height="53" viewBox="0 0 54 53" fill="none" xmlns="http://www.w3.org/2000/svg">
<path fill-rule="evenodd" clip-rule="evenodd" d="M2.70831 26.5C2.70831 36.9452 6.49503 44.6937 8.61155 48.2128C9.82787 50.2351 12.1262 51.066 14.2546 50.7125L19.8344 49.7859C23.0992 49.2437 25.287 46.1438 24.6949 42.899L23.7842 37.9077C23.3976 35.789 21.3755 34.372 19.2437 34.7261L16.4427 35.1912C15.7441 34.0023 14.5707 31.3004 14.5707 26.5C14.5707 21.6996 15.7441 18.9977 16.4427 17.8087L19.2437 18.2739C21.3755 18.6279 23.3976 17.211 23.7842 15.0923L24.6949 10.101C25.287 6.85614 23.0992 3.75627 19.8344 3.21407L14.2546 2.28741C12.1262 1.93393 9.82787 2.76484 8.61154 4.7872C6.49503 8.30628 2.70831 16.0548 2.70831 26.5ZM12.0032 46.1874C10.1123 43.0434 6.66245 35.9987 6.66245 26.5C6.66245 17.0013 10.1123 9.95656 12.0032 6.81261C12.2796 6.3531 12.8687 6.05166 13.6046 6.17386L19.1844 7.10052C20.2727 7.28125 21.0019 8.31455 20.8045 9.39616L19.8938 14.3874L16.8879 13.8882C15.6595 13.6842 14.1508 14.0674 13.2865 15.4026C12.2076 17.0691 10.6166 20.5515 10.6166 26.5C10.6166 32.4484 12.2076 35.9309 13.2865 37.5974C14.1508 38.9326 15.6595 39.3157 16.8879 39.1117L19.8938 38.6125L20.8045 43.6038C21.0019 44.6854 20.2727 45.7187 19.1844 45.8994L13.6046 46.8261C12.8687 46.9483 12.2796 46.6469 12.0032 46.1874Z" fill="white"/>
<path d="M47.3081 6.62498C45.9416 6.62498 44.9083 7.8716 45.1385 9.21856C45.7872 13.013 46.875 20.3004 46.875 26.5C46.875 32.6996 45.7872 39.9869 45.1385 43.7814C44.9083 45.1284 45.9416 46.375 47.3081 46.375C48.3403 46.375 49.2263 45.6506 49.4067 44.6343C50.02 41.1777 51.2916 33.203 51.2916 26.5C51.2916 19.7969 50.02 11.8222 49.4067 8.36567C49.2263 7.34932 48.3403 6.62498 47.3081 6.62498Z" fill="white"/>
<path d="M36.7092 14.0251C36.3639 12.5742 37.4557 11.0416 38.9471 11.0416C39.7456 11.0416 40.4651 11.4956 40.7141 12.2543C41.3618 14.2284 42.4583 18.7194 42.4583 26.5C42.4583 34.2806 41.3618 38.7716 40.7141 40.7457C40.4651 41.5044 39.7456 41.9583 38.9471 41.9583C37.4557 41.9583 36.3639 40.4258 36.7092 38.9749C37.3258 36.3842 38.0416 32.1579 38.0416 26.5C38.0416 20.842 37.3258 16.6158 36.7092 14.0251Z" fill="white"/>
<path d="M30.5164 15.4583C28.9009 15.4583 27.7521 17.2067 28.1797 18.7647C28.7055 20.6804 29.2083 23.3388 29.2083 26.5C29.2083 29.6612 28.7055 32.3196 28.1797 34.2353C27.7521 35.7933 28.9009 37.5416 30.5164 37.5416C31.0928 37.5416 31.6405 37.3029 31.9109 36.7938C32.5619 35.5683 33.625 32.6288 33.625 26.5C33.625 20.3712 32.5619 17.4316 31.9109 16.2061C31.6405 15.6971 31.0928 15.4583 30.5164 15.4583Z" fill="white"/>
</svg>
